<svg xmlns="http://www.w3.org/2000/svg" xmlns:xlink="http://www.w3.org/1999/xlink" viewBox="0,0,256,256" width="64px" height="64px" fill-rule="nonzero"><g transform="translate(28.44444,28.44444) scale(0.77778,0.77778)"><g fill="none" fill-rule="nonzero" stroke="#000000" stroke-width="64" stroke-linecap="butt" stroke-linejoin="miter" stroke-miterlimit="10" stroke-dasharray="" stroke-dashoffset="0" font-family="none" font-weight="none" font-size="none" text-anchor="none" style="mix-blend-mode: normal"><path d="M128,223.70093c-52.85417,0 -95.70093,-42.84677 -95.70093,-95.70093v0c0,-52.85417 42.84677,-95.70093 95.70093,-95.70093v0c52.85417,0 95.70093,42.84677 95.70093,95.70093v0c0,52.85417 -42.84677,95.70093 -95.70093,95.70093z" id="shape"></path></g><g fill="#000000" fill-rule="nonzero" stroke="none" stroke-width="1" stroke-linecap="butt" stroke-linejoin="miter" stroke-miterlimit="10" stroke-dasharray="" stroke-dashoffset="0" font-family="none" font-weight="none" font-size="none" text-anchor="none" style="mix-blend-mode: normal"><g transform="translate(-0.15371,0.11124) scale(3.55556,3.55556)"><path d="M44.098,15.974c12.376,0 13.891,1.554 13.891,14.03l-0.007,17.059c0.007,10.922 -2.006,12.915 -13.943,12.915l-16.039,0.053c-12.417,0 -14.028,-1.493 -14.028,-14.002l0.033,-16.527c0,-12.027 1.75,-13.501 13.58,-13.528zM45.446,40.558v-0.125c0,-2.388 -0.93,-4.633 -2.618,-6.319c-1.688,-1.688 -3.932,-2.618 -6.319,-2.618h-1.125c-1.104,0 -2,0.896 -2,2c0,1.104 0.896,2 2,2h1.125c1.318,0 2.559,0.514 3.491,1.447c0.933,0.932 1.446,2.171 1.446,3.491v0.125c0,1.319 -0.514,2.559 -1.446,3.491c-0.932,0.932 -2.173,1.446 -3.491,1.446h-1.125c-1.318,0 -2.559,-0.514 -3.491,-1.447c-0.905,-0.905 -1.446,-2.233 -1.446,-3.553v-12c0,-1.104 -0.896,-2 -2,-2c-1.104,0 -2,0.896 -2,2v12c0,2.393 0.954,4.72 2.618,6.382c1.688,1.688 3.932,2.618 6.319,2.618h1.125c2.388,0 4.632,-0.93 6.319,-2.618c1.688,-1.687 2.618,-3.932 2.618,-6.32z"></path></g></g></g></svg>