<svg xmlns="http://www.w3.org/2000/svg" xmlns:xlink="http://www.w3.org/1999/xlink" viewBox="0,0,256,256" width="64px" height="64px" fill-rule="nonzero"><g transform="translate(28.44444,28.44444) scale(0.77778,0.77778)"><g fill="none" fill-rule="nonzero" stroke="#000000" stroke-width="64" stroke-linecap="butt" stroke-linejoin="miter" stroke-miterlimit="10" stroke-dasharray="" stroke-dashoffset="0" font-family="none" font-weight="none" font-size="none" text-anchor="none" style="mix-blend-mode: normal"><path d="M128,223.70093c-52.85417,0 -95.70093,-42.84677 -95.70093,-95.70093v0c0,-52.85417 42.84677,-95.70093 95.70093,-95.70093v0c52.85417,0 95.70093,42.84677 95.70093,95.70093v0c0,52.85417 -42.84677,95.70093 -95.70093,95.70093z" id="shape"></path></g><g fill="#000000" fill-rule="nonzero" stroke="none" stroke-width="1" stroke-linecap="butt" stroke-linejoin="miter" stroke-miterlimit="10" stroke-dasharray="" stroke-dashoffset="0" font-family="none" font-weight="none" font-size="none" text-anchor="none" style="mix-blend-mode: normal"><g transform="translate(3.62489,-10.67556) scale(3.55556,3.55556)"><path d="M44.098,15.974c12.376,0 13.891,1.554 13.891,14.03l-0.007,17.059c0.007,10.922 -2.006,12.915 -13.943,12.915l-16.039,0.053c-12.417,0 -14.028,-1.493 -14.028,-14.002l0.033,-16.527c0,-12.027 1.75,-13.501 13.58,-13.528zM45.446,40.558v-0.125c0,-2.388 -0.93,-4.633 -2.618,-6.319c-1.688,-1.688 -3.932,-2.618 -6.319,-2.618h-1.125c-1.104,0 -2,0.896 -2,2c0,1.104 0.896,2 2,2h1.125c1.318,0 2.559,0.514 3.491,1.447c0.933,0.932 1.446,2.171 1.446,3.491v0.125c0,1.319 -0.514,2.559 -1.446,3.491c-0.932,0.932 -2.173,1.446 -3.491,1.446h-1.125c-1.318,0 -2.559,-0.514 -3.491,-1.447c-0.905,-0.905 -1.446,-2.233 -1.446,-3.553v-12c0,-1.104 -0.896,-2 -2,-2c-1.104,0 -2,0.896 -2,2v12c0,2.393 0.954,4.72 2.618,6.382c1.688,1.688 3.932,2.618 6.319,2.618h1.125c2.388,0 4.632,-0.93 6.319,-2.618c1.688,-1.687 2.618,-3.932 2.618,-6.32z"></path></g></g><g fill="#fefffe" fill-rule="nonzero" stroke="none" stroke-width="1" stroke-linecap="butt" stroke-linejoin="miter" stroke-miterlimit="10" stroke-dasharray="" stroke-dashoffset="0" font-family="none" font-weight="none" font-size="none" text-anchor="none" style="mix-blend-mode: normal"><g><path d="M70.065,181.62444v0c0,0.58667 -0.09667,1.19 -0.29,1.81c-0.18667,0.61333 -0.47,1.18667 -0.85,1.72c-0.38,0.53333 -0.86667,1.00333 -1.46,1.41c-0.59333,0.4 -1.29333,0.70667 -2.1,0.92v0v0.14c0.71333,0.12 1.39667,0.32333 2.05,0.61c0.65333,0.28667 1.22667,0.67667 1.72,1.17c0.5,0.5 0.90333,1.10667 1.21,1.82c0.30667,0.70667 0.46,1.54667 0.46,2.52v0c0,1.28 -0.26667,2.38667 -0.8,3.32c-0.53333,0.94 -1.23,1.70667 -2.09,2.3c-0.86667,0.59333 -1.85667,1.03 -2.97,1.31c-1.11333,0.28667 -2.25333,0.43 -3.42,0.43v0c-0.4,0 -0.87333,0 -1.42,0c-0.54667,0 -1.11667,-0.01667 -1.71,-0.05c-0.58667,-0.04 -1.17667,-0.09 -1.77,-0.15c-0.59333,-0.05333 -1.11667,-0.14 -1.57,-0.26v0v-24.5c0.88,-0.14 1.9,-0.26 3.06,-0.36c1.16,-0.09333 2.42667,-0.14 3.8,-0.14v0c0.92667,0 1.87,0.07667 2.83,0.23c0.96,0.15333 1.83,0.45 2.61,0.89c0.78667,0.44 1.43333,1.05 1.94,1.83c0.51333,0.78667 0.77,1.79667 0.77,3.03zM61.815,198.54444v0c0.76,0 1.49333,-0.09 2.2,-0.27c0.71333,-0.17333 1.34333,-0.45667 1.89,-0.85c0.54,-0.39333 0.97,-0.87333 1.29,-1.44c0.32,-0.56667 0.48,-1.24333 0.48,-2.03v0c0,-0.96667 -0.19333,-1.74667 -0.58,-2.34c-0.39333,-0.59333 -0.90333,-1.05667 -1.53,-1.39c-0.62667,-0.33333 -1.33333,-0.56 -2.12,-0.68c-0.78,-0.11333 -1.56,-0.17 -2.34,-0.17v0h-3.1v8.92c0.16667,0.04667 0.40333,0.08333 0.71,0.11c0.31333,0.02 0.64667,0.04333 1,0.07c0.35333,0.02 0.72,0.03667 1.1,0.05c0.38,0.01333 0.71333,0.02 1,0.02zM58.005,186.88444h1.85c0.40667,0 0.89333,-0.01333 1.46,-0.04c0.56667,-0.02 1.04,-0.05333 1.42,-0.1v0c0.57333,-0.19333 1.10667,-0.42667 1.6,-0.7c0.5,-0.27333 0.94667,-0.59333 1.34,-0.96c0.38667,-0.36667 0.69333,-0.79333 0.92,-1.28c0.22667,-0.48667 0.34,-1.01333 0.34,-1.58v0c0,-0.78 -0.15,-1.42667 -0.45,-1.94c-0.29333,-0.50667 -0.69,-0.91333 -1.19,-1.22c-0.49333,-0.31333 -1.06,-0.53333 -1.7,-0.66c-0.64,-0.13333 -1.29333,-0.2 -1.96,-0.2v0c-0.78,0 -1.49667,0.02 -2.15,0.06c-0.65333,0.03333 -1.14667,0.08667 -1.48,0.16v0zM76.145,186.49444l-0.89,-2.14c0.9,-0.54 1.94667,-0.94333 3.14,-1.21c1.2,-0.26 2.45333,-0.39 3.76,-0.39v0c1.22667,0 2.21333,0.16667 2.96,0.5c0.74667,0.33333 1.31667,0.76667 1.71,1.3c0.39333,0.53333 0.65333,1.12 0.78,1.76c0.13333,0.64 0.2,1.28 0.2,1.92v0c0,1.42 -0.03667,2.80667 -0.11,4.16c-0.06667,1.35333 -0.1,2.63333 -0.1,3.84v0c0,0.87333 0.03333,1.70333 0.1,2.49c0.07333,0.78 0.20333,1.50333 0.39,2.17v0h-2.09l-0.75,-2.49h-0.18c-0.21333,0.33333 -0.48,0.66 -0.8,0.98c-0.32,0.32 -0.70333,0.60333 -1.15,0.85c-0.45333,0.24667 -0.97667,0.45333 -1.57,0.62c-0.59333,0.16667 -1.27,0.25 -2.03,0.25v0c-0.75333,0 -1.45667,-0.12 -2.11,-0.36c-0.65333,-0.23333 -1.21667,-0.57 -1.69,-1.01c-0.47333,-0.44 -0.84667,-0.96667 -1.12,-1.58c-0.27333,-0.62 -0.41,-1.32 -0.41,-2.1v0c0,-1.04 0.21333,-1.91 0.64,-2.61c0.42667,-0.7 1.02667,-1.25667 1.8,-1.67c0.76667,-0.42 1.69,-0.71667 2.77,-0.89c1.08,-0.18 2.27,-0.27 3.57,-0.27v0c0.33333,0 0.66,0 0.98,0c0.32,0 0.64667,0.02333 0.98,0.07v0c0.07333,-0.70667 0.11,-1.34667 0.11,-1.92v0c0,-1.3 -0.26333,-2.21333 -0.79,-2.74c-0.52,-0.52 -1.46667,-0.78 -2.84,-0.78v0c-0.40667,0 -0.84,0.03 -1.3,0.09c-0.46,0.06 -0.93333,0.14333 -1.42,0.25c-0.48667,0.10667 -0.95,0.23667 -1.39,0.39c-0.44,0.15333 -0.82333,0.32667 -1.15,0.52zM80.305,198.61444v0c0.66,0 1.25,-0.09 1.77,-0.27c0.52667,-0.17333 0.98,-0.39667 1.36,-0.67c0.37333,-0.27333 0.68667,-0.57667 0.94,-0.91c0.24667,-0.33333 0.43,-0.65333 0.55,-0.96v0v-2.95c-0.33333,-0.02 -0.67,-0.03667 -1.01,-0.05c-0.34667,-0.01333 -0.68667,-0.02 -1.02,-0.02v0c-0.73333,0 -1.45,0.04 -2.15,0.12c-0.7,0.08667 -1.31667,0.24333 -1.85,0.47c-0.53333,0.22 -0.96,0.52667 -1.28,0.92c-0.32,0.39333 -0.48,0.88667 -0.48,1.48v0c0,0.82667 0.29667,1.50667 0.89,2.04c0.59333,0.53333 1.35333,0.8 2.28,0.8zM102.165,183.04444l-0.6,2.74c-0.71333,-0.24 -1.39,-0.36 -2.03,-0.36v0c-1.02,0 -1.82667,0.28 -2.42,0.84c-0.58667,0.55333 -0.95333,1.25667 -1.1,2.11v0v12.45h-2.84v-17.78h1.99l0.53,2.17h0.14c0.45333,-0.80667 0.99333,-1.43 1.62,-1.87c0.62667,-0.44 1.42667,-0.66 2.4,-0.66v0c0.68667,0 1.45667,0.12 2.31,0.36zM117.175,197.33444l1.06,2.06c-0.70667,0.57333 -1.6,1.02333 -2.68,1.35c-1.08,0.33333 -2.22333,0.5 -3.43,0.5v0c-1.35333,0 -2.52667,-0.22 -3.52,-0.66c-0.99333,-0.43333 -1.81,-1.06 -2.45,-1.88c-0.64,-0.82 -1.11667,-1.79667 -1.43,-2.93c-0.30667,-1.14 -0.46,-2.42 -0.46,-3.84v0c0,-3.03333 0.67667,-5.34667 2.03,-6.94c1.34667,-1.58667 3.27667,-2.38 5.79,-2.38v0c0.80667,0 1.61333,0.09 2.42,0.27c0.80667,0.17333 1.53,0.51 2.17,1.01c0.64,0.5 1.16,1.20667 1.56,2.12c0.40667,0.91333 0.61,2.11667 0.61,3.61v0c0,0.78 -0.07,1.64333 -0.21,2.59v0h-11.42c0,1.04667 0.10667,1.97 0.32,2.77c0.21333,0.80667 0.54667,1.49 1,2.05c0.44667,0.55333 1.03333,0.98 1.76,1.28c0.72,0.29333 1.60333,0.44 2.65,0.44v0c0.80667,0 1.61,-0.14 2.41,-0.42c0.80667,-0.28667 1.41333,-0.62 1.82,-1zM112.125,185.10444v0c-1.4,0 -2.52,0.36667 -3.36,1.1c-0.84,0.73333 -1.34333,1.99 -1.51,3.77v0h8.82c0,-1.8 -0.34667,-3.06333 -1.04,-3.79c-0.68667,-0.72 -1.65667,-1.08 -2.91,-1.08zM123.325,199.78444v-23.85h2.84v8.85h0.15c0.54,-0.68667 1.23333,-1.22 2.08,-1.6c0.84,-0.38 1.75667,-0.57 2.75,-0.57v0c2.3,0 4.02333,0.73667 5.17,2.21c1.15333,1.46667 1.73,3.74 1.73,6.82v0c0,3.10667 -0.76,5.46667 -2.28,7.08c-1.51333,1.61333 -3.64667,2.42 -6.4,2.42v0c-1.32667,0 -2.53,-0.14333 -3.61,-0.43c-1.07333,-0.28667 -1.88333,-0.59667 -2.43,-0.93zM130.645,185.10444v0c-1.18,0 -2.14,0.33333 -2.88,1c-0.73333,0.66 -1.26667,1.59333 -1.6,2.8v0v8.96c0.45333,0.26667 1,0.46333 1.64,0.59c0.64,0.13333 1.30333,0.2 1.99,0.2v0c1.61333,0 2.9,-0.57 3.86,-1.71c0.96,-1.14 1.44,-2.91667 1.44,-5.33v0c0,-0.92667 -0.08333,-1.79333 -0.25,-2.6c-0.16667,-0.80667 -0.42667,-1.49333 -0.78,-2.06c-0.36,-0.56667 -0.81667,-1.01667 -1.37,-1.35c-0.56,-0.33333 -1.24333,-0.5 -2.05,-0.5zM154.435,197.33444l1.07,2.06c-0.71333,0.57333 -1.61,1.02333 -2.69,1.35c-1.08,0.33333 -2.22333,0.5 -3.43,0.5v0c-1.35333,0 -2.52667,-0.22 -3.52,-0.66c-0.99333,-0.43333 -1.81,-1.06 -2.45,-1.88c-0.64,-0.82 -1.11333,-1.79667 -1.42,-2.93c-0.31333,-1.14 -0.47,-2.42 -0.47,-3.84v0c0,-3.03333 0.67667,-5.34667 2.03,-6.94c1.35333,-1.58667 3.28667,-2.38 5.8,-2.38v0c0.8,0 1.60333,0.09 2.41,0.27c0.80667,0.17333 1.53,0.51 2.17,1.01c0.64,0.5 1.16333,1.20667 1.57,2.12c0.4,0.91333 0.6,2.11667 0.6,3.61v0c0,0.78 -0.07,1.64333 -0.21,2.59v0h-11.42c0,1.04667 0.10667,1.97 0.32,2.77c0.21333,0.80667 0.54667,1.49 1,2.05c0.45333,0.55333 1.04,0.98 1.76,1.28c0.72,0.29333 1.60333,0.44 2.65,0.44v0c0.80667,0 1.61333,-0.14 2.42,-0.42c0.80667,-0.28667 1.41,-0.62 1.81,-1zM149.385,185.10444v0c-1.4,0 -2.52,0.36667 -3.36,1.1c-0.84,0.73333 -1.34333,1.99 -1.51,3.77v0h8.82c0,-1.8 -0.34333,-3.06333 -1.03,-3.79c-0.68667,-0.72 -1.66,-1.08 -2.92,-1.08zM161.195,186.49444l-0.89,-2.14c0.9,-0.54 1.94667,-0.94333 3.14,-1.21c1.2,-0.26 2.45,-0.39 3.75,-0.39v0c1.23333,0 2.22333,0.16667 2.97,0.5c0.74667,0.33333 1.31667,0.76667 1.71,1.3c0.39333,0.53333 0.65333,1.12 0.78,1.76c0.13333,0.64 0.2,1.28 0.2,1.92v0c0,1.42 -0.03667,2.80667 -0.11,4.16c-0.07333,1.35333 -0.11,2.63333 -0.11,3.84v0c0,0.87333 0.03667,1.70333 0.11,2.49c0.07333,0.78 0.20333,1.50333 0.39,2.17v0h-2.1l-0.74,-2.49h-0.18c-0.21333,0.33333 -0.48,0.66 -0.8,0.98c-0.32,0.32 -0.70667,0.60333 -1.16,0.85c-0.44667,0.24667 -0.96667,0.45333 -1.56,0.62c-0.59333,0.16667 -1.27,0.25 -2.03,0.25v0c-0.75333,0 -1.45667,-0.12 -2.11,-0.36c-0.65333,-0.23333 -1.21667,-0.57 -1.69,-1.01c-0.47333,-0.44 -0.84667,-0.96667 -1.12,-1.58c-0.27333,-0.62 -0.41,-1.32 -0.41,-2.1v0c0,-1.04 0.21333,-1.91 0.64,-2.61c0.42667,-0.7 1.02667,-1.25667 1.8,-1.67c0.76667,-0.42 1.69,-0.71667 2.77,-0.89c1.08,-0.18 2.27,-0.27 3.57,-0.27v0c0.33333,0 0.66,0 0.98,0c0.32,0 0.64667,0.02333 0.98,0.07v0c0.06667,-0.70667 0.1,-1.34667 0.1,-1.92v0c0,-1.3 -0.26,-2.21333 -0.78,-2.74c-0.52,-0.52 -1.46667,-0.78 -2.84,-0.78v0c-0.40667,0 -0.84,0.03 -1.3,0.09c-0.46,0.06 -0.93333,0.14333 -1.42,0.25c-0.48667,0.10667 -0.95,0.23667 -1.39,0.39c-0.44,0.15333 -0.82333,0.32667 -1.15,0.52zM165.355,198.61444v0c0.66,0 1.25,-0.09 1.77,-0.27c0.52667,-0.17333 0.97667,-0.39667 1.35,-0.67c0.38,-0.27333 0.69667,-0.57667 0.95,-0.91c0.24667,-0.33333 0.43,-0.65333 0.55,-0.96v0v-2.95c-0.33333,-0.02 -0.67333,-0.03667 -1.02,-0.05c-0.34,-0.01333 -0.67667,-0.02 -1.01,-0.02v0c-0.73333,0 -1.45,0.04 -2.15,0.12c-0.7,0.08667 -1.31667,0.24333 -1.85,0.47c-0.53333,0.22 -0.96,0.52667 -1.28,0.92c-0.32,0.39333 -0.48,0.88667 -0.48,1.48v0c0,0.82667 0.29667,1.50667 0.89,2.04c0.59333,0.53333 1.35333,0.8 2.28,0.8zM175.875,185.53444v-2.49h2.77v-3.52l2.85,-0.82v4.34h4.83v2.49h-4.83v9.85c0,1.22667 0.15333,2.09667 0.46,2.61c0.30667,0.50667 0.82667,0.76 1.56,0.76v0c0.62,0 1.14333,-0.06333 1.57,-0.19c0.42667,-0.13333 0.9,-0.30667 1.42,-0.52v0l0.64,2.17c-0.64,0.30667 -1.34,0.55667 -2.1,0.75c-0.75333,0.18667 -1.57,0.28 -2.45,0.28v0c-1.44667,0 -2.46667,-0.40667 -3.06,-1.22c-0.59333,-0.82 -0.89,-2.19 -0.89,-4.11v0v-10.38zM198.095,195.98444v0c0,-0.71333 -0.21333,-1.27 -0.64,-1.67c-0.42667,-0.40667 -0.95333,-0.74333 -1.58,-1.01c-0.62667,-0.27333 -1.31333,-0.53667 -2.06,-0.79c-0.74667,-0.24667 -1.43333,-0.56667 -2.06,-0.96c-0.63333,-0.38667 -1.16333,-0.89 -1.59,-1.51c-0.42667,-0.61333 -0.64,-1.44333 -0.64,-2.49v0c0,-1.70667 0.48667,-2.95667 1.46,-3.75c0.97333,-0.79333 2.32333,-1.19 4.05,-1.19v0c1.28,0 2.35333,0.11333 3.22,0.34c0.86667,0.22667 1.62,0.49333 2.26,0.8v0l-0.68,2.35c-0.54,-0.26667 -1.19667,-0.5 -1.97,-0.7c-0.76667,-0.2 -1.59,-0.3 -2.47,-0.3v0c-1.04,0 -1.80333,0.17667 -2.29,0.53c-0.48667,0.36 -0.73,0.97667 -0.73,1.85v0c0,0.62 0.21333,1.1 0.64,1.44c0.42667,0.34667 0.95333,0.65667 1.58,0.93c0.62667,0.27333 1.31333,0.54 2.06,0.8c0.74667,0.26 1.43333,0.60333 2.06,1.03c0.63333,0.42667 1.16333,0.96667 1.59,1.62c0.42667,0.64667 0.64,1.50333 0.64,2.57v0c0,0.76 -0.12667,1.47333 -0.38,2.14c-0.24667,0.66 -0.63,1.22667 -1.15,1.7c-0.52,0.47333 -1.16667,0.84667 -1.94,1.12c-0.77333,0.27333 -1.68,0.41 -2.72,0.41v0c-1.35333,0 -2.50333,-0.13 -3.45,-0.39c-0.94667,-0.26 -1.74,-0.56667 -2.38,-0.92v0l0.85,-2.42c0.54667,0.30667 1.26,0.59 2.14,0.85c0.87333,0.26 1.76,0.39 2.66,0.39v0c1.02,0 1.86333,-0.2 2.53,-0.6c0.66,-0.40667 0.99,-1.13 0.99,-2.17z"></path></g></g></g></svg>